In.a.Better.World.aka.Hævnen.2010.720p.BRRip.x264.aac.mp4-anoXmous

 

Format                           : MPEG-4

Format profile                   : Base Media

Codec ID                         : isom

File size                        : 699 MiB

Duration                         : 1h 57mn

Overall bit rate mode            : Variable

Overall bit rate                 : 830 Kbps





Video

ID                               : 1

Format                           : AVC

Format/Info                      : Advanced Video Codec

Format profile                   : High@L4.1

Format settings, CABAC           : Yes

Format settings, ReFrames        : 4 frames

Codec ID                         : avc1

Codec ID/Info                    : Advanced Video Coding

Duration                         : 1h 57mn

Bit rate                         : 760 Kbps

Maximum bit rate                 : 5 301 Kbps

Width                            : 1 280 pixels

Height                           : 720 pixels

Display aspect ratio             : 16:9

Frame rate mode                  : Constant

Frame rate                       : 24.000 fps

Color space                      : YUV

Chroma subsampling               : 4:2:0

Bit depth                        : 8 bits

Scan type                        : Progressive

Bits/(Pixel*Frame)               : 0.034

Stream size                      : 640 MiB (91%)

Writing library                  : x264 core 119 r2106 07efeb4





Audio

ID                               : 2

Format                           : AAC

Format/Info                      : Advanced Audio Codec

Format profile                   : LC

Codec ID                         : 40

Duration                         : 1h 57mn

Bit rate mode                    : Variable

Bit rate                         : 67.7 Kbps

Maximum bit rate                 : 87.6 Kbps

Channel(s)                       : 2 channels

Channel positions                : Front: L R

Sampling rate                    : 48.0 KHz 

Compression mode                 : Lossy

Stream size                      : 57.0 MiB (8%)

Language                         : Danish



                               SUB:

In.a.Better.World.aka.Hævnen.2010.720p.BRRip.x264.aac.mp4-anoXmous.dan.srt	

In.a.Better.World.aka.Hævnen.2010.720p.BRRip.x264.aac.mp4-anoXmous.eng.srt			   

In.a.Better.World.aka.Hævnen.2010.720p.BRRip.x264.aac.mp4-anoXmous.nor.srt

In.a.Better.World.aka.Hævnen.2010.720p.BRRip.x264.aac.mp4-anoXmous.swe.srt


 
http://www.imdb.com/title/tt1340107/



This 1 should work very fine with PSP and XBOX 